<svg xmlns="http://www.w3.org/2000/svg" viewBox="0 8.890000343322754 338.1600036621094 47.900001525878906" data-asc="0.927734375" width="338.1600036621094" height="47.900001525878906">
  <defs/>
  <g>
    <g fill="#d1aef7">
      <g transform="translate(0, 0)">
        <path d="M4.69 46.39L0 46.39L0 10.84L4.69 10.84L4.69 46.39ZM16.82 19.97L16.97 23.29Q20.00 19.48 24.88 19.48Q33.25 19.48 33.33 28.93L33.33 46.39L28.81 46.39L28.81 28.91Q28.78 26.05 27.50 24.68Q26.22 23.32 23.51 23.32Q21.31 23.32 19.65 24.49Q17.99 25.66 17.07 27.56L17.07 46.39L12.55 46.39L12.55 19.97L16.82 19.97ZM55.52 39.38Q55.52 37.55 54.14 36.54Q52.76 35.52 49.33 34.79Q45.90 34.06 43.88 33.03Q41.87 32.01 40.91 30.59Q39.94 29.17 39.94 27.22Q39.94 23.97 42.69 21.73Q45.43 19.48 49.71 19.48Q54.20 19.48 56.99 21.80Q59.79 24.12 59.79 27.73L55.25 27.73Q55.25 25.88 53.67 24.54Q52.10 23.19 49.71 23.19Q47.24 23.19 45.85 24.27Q44.46 25.34 44.46 27.08Q44.46 28.71 45.75 29.54Q47.05 30.37 50.43 31.13Q53.81 31.88 55.91 32.93Q58.01 33.98 59.02 35.46Q60.03 36.94 60.03 39.06Q60.03 42.60 57.20 44.74Q54.37 46.88 49.85 46.88Q46.68 46.88 44.24 45.75Q41.80 44.63 40.42 42.61Q39.04 40.60 39.04 38.26L43.55 38.26Q43.68 40.53 45.37 41.86Q47.07 43.19 49.85 43.19Q52.42 43.19 53.97 42.15Q55.52 41.11 55.52 39.38ZM82.23 43.77Q79.59 46.88 74.49 46.88Q70.26 46.88 68.05 44.42Q65.84 41.97 65.82 37.16L65.82 19.97L70.34 19.97L70.34 37.04Q70.34 43.04 75.22 43.04Q80.40 43.04 82.10 39.18L82.10 19.97L86.62 19.97L86.62 46.39L82.32 46.39L82.23 43.77ZM106.25 24.02Q105.22 23.85 104.03 23.85Q99.58 23.85 98.00 27.64L98.00 46.39L93.48 46.39L93.48 19.97L97.88 19.97L97.95 23.02Q100.17 19.48 104.25 19.48Q105.57 19.48 106.25 19.82L106.25 24.02ZM120.90 46.88Q115.53 46.88 112.16 43.35Q108.79 39.82 108.79 33.91L108.79 33.08Q108.79 29.15 110.29 26.06Q111.79 22.97 114.49 21.23Q117.19 19.48 120.34 19.48Q125.49 19.48 128.34 22.88Q131.20 26.27 131.20 32.59L131.20 34.47L113.31 34.47Q113.40 38.38 115.59 40.78Q117.77 43.19 121.14 43.19Q123.54 43.19 125.20 42.21Q126.86 41.24 128.10 39.62L130.86 41.77Q127.54 46.88 120.90 46.88M120.34 23.19Q117.60 23.19 115.75 25.18Q113.89 27.17 113.45 30.76L126.68 30.76L126.68 30.42Q126.49 26.98 124.83 25.09Q123.17 23.19 120.34 23.19ZM135.33 32.96Q135.33 26.88 138.21 23.18Q141.09 19.48 145.75 19.48Q150.39 19.48 153.10 22.66L153.10 8.89L157.62 8.89L157.62 46.39L153.47 46.39L153.25 43.55Q150.54 46.88 145.70 46.88Q141.11 46.88 138.22 43.12Q135.33 39.36 135.33 33.30L135.33 32.96M139.84 33.47Q139.84 37.96 141.70 40.50Q143.55 43.04 146.83 43.04Q151.12 43.04 153.10 39.18L153.10 27.05Q151.07 23.32 146.88 23.32Q143.55 23.32 141.70 25.88Q139.84 28.44 139.84 33.47ZM201.29 14.70L189.87 14.70L189.87 46.39L185.21 46.39L185.21 14.70L173.80 14.70L173.80 10.84L201.29 10.84L201.29 14.70ZM218.63 24.02Q217.60 23.85 216.41 23.85Q211.96 23.85 210.38 27.64L210.38 46.39L205.86 46.39L205.86 19.97L210.25 19.97L210.33 23.02Q212.55 19.48 216.63 19.48Q217.94 19.48 218.63 19.82L218.63 24.02ZM238.11 46.39Q237.72 45.61 237.48 43.60Q234.33 46.88 229.96 46.88Q226.05 46.88 223.55 44.67Q221.04 42.46 221.04 39.06Q221.04 34.94 224.18 32.65Q227.32 30.37 233.01 30.37L237.40 30.37L237.40 28.30Q237.40 25.93 235.99 24.52Q234.57 23.12 231.81 23.12Q229.39 23.12 227.76 24.34Q226.12 25.56 226.12 27.29L221.58 27.29Q221.58 25.32 222.99 23.47Q224.39 21.63 226.79 20.56Q229.20 19.48 232.08 19.48Q236.65 19.48 239.23 21.77Q241.82 24.05 241.92 28.05L241.92 40.21Q241.92 43.85 242.85 46.00L242.85 46.39L238.11 46.39M230.62 42.94Q232.74 42.94 234.64 41.85Q236.55 40.75 237.40 38.99L237.40 33.57L233.86 33.57Q225.56 33.57 225.56 38.43Q225.56 40.55 226.98 41.75Q228.39 42.94 230.62 42.94ZM247.90 32.96Q247.90 26.88 250.78 23.18Q253.66 19.48 258.33 19.48Q262.96 19.48 265.67 22.66L265.67 8.89L270.19 8.89L270.19 46.39L266.04 46.39L265.82 43.55Q263.11 46.88 258.28 46.88Q253.69 46.88 250.79 43.12Q247.90 39.36 247.90 33.30L247.90 32.96M252.42 33.47Q252.42 37.96 254.27 40.50Q256.13 43.04 259.40 43.04Q263.70 43.04 265.67 39.18L265.67 27.05Q263.65 23.32 259.45 23.32Q256.13 23.32 254.27 25.88Q252.42 28.44 252.42 33.47ZM282.10 46.39L277.59 46.39L277.59 19.97L282.10 19.97L282.10 46.39M277.22 12.96Q277.22 11.87 277.89 11.11Q278.56 10.35 279.88 10.35Q281.20 10.35 281.88 11.11Q282.57 11.87 282.57 12.96Q282.57 14.06 281.88 14.79Q281.20 15.53 279.88 15.53Q278.56 15.53 277.89 14.79Q277.22 14.06 277.22 12.96ZM293.60 19.97L293.75 23.29Q296.78 19.48 301.66 19.48Q310.03 19.48 310.11 28.93L310.11 46.39L305.59 46.39L305.59 28.91Q305.57 26.05 304.28 24.68Q303.00 23.32 300.29 23.32Q298.10 23.32 296.44 24.49Q294.78 25.66 293.85 27.56L293.85 46.39L289.33 46.39L289.33 19.97L293.60 19.97ZM315.84 32.96Q315.84 26.78 318.70 23.13Q321.56 19.48 326.27 19.48Q331.10 19.48 333.81 22.90L334.03 19.97L338.16 19.97L338.16 45.75Q338.16 50.88 335.12 53.83Q332.08 56.79 326.95 56.79Q324.10 56.79 321.36 55.57Q318.63 54.35 317.19 52.22L319.53 49.51Q322.44 53.10 326.64 53.10Q329.93 53.10 331.77 51.25Q333.62 49.39 333.62 46.02L333.62 43.75Q330.91 46.88 326.22 46.88Q321.58 46.88 318.71 43.14Q315.84 39.40 315.84 32.96M320.39 33.47Q320.39 37.94 322.22 40.49Q324.05 43.04 327.34 43.04Q331.62 43.04 333.62 39.16L333.62 27.10Q331.54 23.32 327.39 23.32Q324.10 23.32 322.24 25.88Q320.39 28.44 320.39 33.47Z"/>
      </g>
    </g>
  </g>
</svg>