<?xml version="1.0" standalone="no"?>
<!DOCTYPE svg PUBLIC "-//W3C//DTD SVG 20010904//EN"
 "http://www.w3.org/TR/2001/REC-SVG-20010904/DTD/svg10.dtd">
<svg version="1.0" xmlns="http://www.w3.org/2000/svg"
 width="512.000000pt" height="512.000000pt" viewBox="0 0 512.000000 512.000000"
 preserveAspectRatio="xMidYMid meet">
<metadata>
Created by potrace 1.16, written by Peter Selinger 2001-2019
</metadata>
<g transform="translate(0.000000,512.000000) scale(0.100000,-0.100000)"
fill="#d1aef7" stroke="none">
<path d="M2465 4198 c-16 -6 -131 -53 -255 -104 -269 -111 -419 -167 -723
-271 l-228 -78 -4 -530 c-2 -294 0 -503 4 -470 12 83 20 263 26 570 6 277 11
348 25 375 10 18 107 68 208 106 34 13 92 36 130 50 37 14 99 37 137 51 39 14
90 36 115 48 25 12 63 28 85 35 22 7 67 25 100 39 33 15 80 36 105 46 25 10
83 36 130 58 47 21 92 40 100 42 23 5 90 35 90 40 0 7 -10 5 -45 -7z"/>
<path d="M2415 3964 c-147 -62 -606 -242 -765 -300 l-105 -38 2 -626 c2 -344
6 -641 10 -660 5 -20 11 145 16 375 4 226 10 513 15 639 l7 228 135 48 c150
53 425 160 630 245 74 31 154 63 177 72 l41 17 139 -57 c76 -31 273 -112 438
-180 l300 -124 1 -54 c1 -42 0 -45 -3 -11 -4 36 -7 42 -28 42 -56 0 -55 5 -55
-219 0 -298 -18 -861 -30 -977 -22 -200 -69 -329 -170 -462 -65 -86 -107 -125
-400 -368 -113 -94 -231 -193 -263 -221 l-58 -51 -50 52 -51 51 48 -57 c65
-76 92 -86 147 -51 23 14 65 46 93 72 61 56 131 115 294 251 245 204 334 308
398 463 58 139 76 275 92 692 11 280 17 365 26 375 3 3 16 5 27 5 22 0 22 1
22 222 0 216 1 222 23 245 l22 25 -27 12 c-16 7 -106 44 -201 82 -95 38 -299
121 -452 184 -153 63 -287 115 -297 114 -10 0 -76 -25 -148 -55z"/>
<path d="M3840 3723 c0 -21 7 -150 17 -288 11 -169 16 -400 17 -715 1 -519 -2
-549 -69 -738 -79 -221 -258 -455 -442 -580 -32 -21 -130 -81 -218 -132 -271
-157 -556 -351 -694 -472 l-34 -30 24 -19 c13 -10 31 -19 39 -20 8 -1 26 -3
40 -4 35 -4 133 45 170 85 10 11 147 107 232 162 47 31 89 62 93 68 4 6 55 43
113 82 59 39 109 74 112 77 3 3 45 32 93 65 106 70 249 204 319 298 28 37 55
68 60 68 5 0 7 4 4 9 -3 5 1 14 9 21 8 7 15 16 15 21 0 5 11 26 24 47 68 108
123 297 140 477 16 165 14 788 -3 1045 -25 381 -32 462 -41 485 -13 35 -20 31
-20 -12z"/>
<path d="M3655 2951 c0 -662 -1 -689 -21 -781 -37 -167 -102 -303 -209 -438
-82 -103 -146 -157 -362 -301 -186 -124 -258 -182 -117 -93 44 27 116 72 162
100 214 133 358 267 438 407 136 237 153 349 154 989 1 477 -7 677 -33 762
-10 34 -12 -85 -12 -645z"/>
<path d="M1652 3531 c-11 -7 -13 -43 -7 -187 7 -187 10 -214 26 -214 5 0 9 85
9 205 0 113 -3 205 -7 205 -5 0 -14 -4 -21 -9z"/>
<path d="M2232 2902 c-84 -85 -151 -156 -149 -158 1 -1 61 53 132 121 72 68
132 124 135 125 3 0 4 -76 2 -170 l-3 -170 -164 0 c-171 0 -192 -5 -159 -41
15 -17 31 -19 171 -19 l153 0 0 -170 c0 -97 -4 -170 -9 -170 -11 0 -91 59
-135 99 -16 14 -49 53 -74 86 -36 49 -44 54 -38 31 10 -43 67 -126 115 -169
63 -57 190 -137 217 -137 25 0 107 65 189 149 27 28 54 51 60 51 5 0 40 32 77
72 69 74 81 104 53 128 -13 11 -30 -2 -113 -82 -153 -148 -263 -248 -273 -248
-5 0 -10 174 -11 412 -2 264 -7 412 -13 413 -5 1 -79 -68 -163 -153z"/>
<path d="M2527 3033 c-4 -3 -7 -81 -7 -173 0 -169 4 -190 40 -190 18 0 310
303 310 322 0 19 -21 38 -40 37 -8 0 -64 -53 -125 -118 -60 -64 -120 -124
-132 -134 l-23 -18 0 141 c0 128 -4 152 -23 133z"/>
<path d="M3106 2718 c-3 -13 -14 -100 -26 -193 -29 -234 -43 -297 -91 -393
-51 -104 -129 -189 -299 -325 -69 -56 -152 -125 -186 -154 l-60 -52 -50 41
c-27 22 -112 88 -189 146 -163 123 -221 180 -285 278 -70 107 -106 238 -149
534 -13 97 -21 126 -33 128 -9 2 -19 -1 -22 -6 -3 -5 6 -83 20 -173 73 -475
133 -580 479 -841 77 -58 161 -123 187 -146 42 -36 51 -39 80 -33 48 11 83 32
178 106 47 36 108 83 135 105 70 53 194 184 241 255 73 109 102 195 118 350 3
28 10 84 15 125 23 170 23 189 1 225 -17 28 -38 45 -56 45 -2 0 -6 -10 -8 -22z"/>
<path d="M1562 2215 c0 -16 2 -22 5 -12 2 9 2 23 0 30 -3 6 -5 -1 -5 -18z"/>
<path d="M1760 1495 c0 -9 156 -129 270 -207 69 -48 145 -101 170 -119 85 -62
250 -170 273 -178 32 -13 70 6 152 76 99 83 203 163 213 163 5 0 19 12 33 26
13 14 -73 -35 -190 -110 -118 -75 -221 -136 -227 -136 -7 0 -15 4 -18 9 -9 15
-676 484 -676 476z"/>
<path d="M2300 1435 c19 -19 36 -35 39 -35 3 0 -10 16 -29 35 -19 19 -36 35
-39 35 -3 0 10 -16 29 -35z"/>
</g>
</svg>